<?xml version="1.0" encoding="utf-8"?>
<!-- Generator: Adobe Illustrator 26.0.2, SVG Export Plug-In . SVG Version: 6.00 Build 0)  -->
<svg version="1.1" xmlns="http://www.w3.org/2000/svg" xmlns:xlink="http://www.w3.org/1999/xlink" x="0px" y="0px"
	 viewBox="0 0 128 128" style="enable-background:new 0 0 128 128;" xml:space="preserve">
<style type="text/css">
	.st0{fill:#020202;}
	.st1{fill:#606060;}
	.st2{fill:#FFFFFF;}
</style>
<g id="Base">
</g>
<g id="Content">
	<g>
		<path d="M98.43,37c0.28,1.06-0.36,2.16-1.42,2.45l-7.73,2.07c-0.17,0.04-0.34,0.07-0.51,0.07c-0.04,0-0.07,0-0.11-0.01
			c-0.38,0.03-0.77-0.06-1.12-0.26L84,39.28v3.04C84,42.7,83.7,43,83.32,43h-2.73C78.05,43,76,40.95,76,38.41V37H38.24
			c-0.2,0.45-0.43,0.87-0.71,1.27L56.43,71H63c4.4,0,8,3.6,8,8v17h17c2.2,0,4.2,0.9,5.65,2.35C95.1,99.8,96,101.8,96,104
			c0,4.4-3.6,8-8,8H40c-2.2,0-4.2-0.9-5.65-2.35C32.9,108.2,32,106.2,32,104c0-4.06,3.07-7.44,7-7.94V79c0-4.4,3.6-8,8-8h0.2
			L30.45,42C25.78,41.97,22,38.17,22,33.5c0-4.69,3.81-8.5,8.5-8.5c3.04,0,5.7,1.6,7.21,4H76v-1.41c0-2.54,2.05-4.59,4.59-4.59h2.73
			C83.7,23,84,23.3,84,23.68v2.63l3.54-2.04c0.35-0.2,0.74-0.29,1.11-0.26C88.69,24,88.72,24,88.76,24c0.17,0,0.35,0.02,0.52,0.07
			l7.73,2.07c1.06,0.28,1.7,1.39,1.42,2.45c-0.24,0.89-1.05,1.48-1.93,1.48c-0.17,0-0.35-0.02-0.52-0.07l-7.09-1.9L84,30.93v3.72
			l4.89,2.83l7.09-1.9c0.17-0.04,0.34-0.07,0.51-0.07C97.37,35.51,98.19,36.1,98.43,37z"/>
	</g>
</g>
</svg>
