<?xml version="1.0" encoding="utf-8"?>
<!-- Generator: Adobe Illustrator 26.0.2, SVG Export Plug-In . SVG Version: 6.00 Build 0)  -->
<svg version="1.1" xmlns="http://www.w3.org/2000/svg" xmlns:xlink="http://www.w3.org/1999/xlink" x="0px" y="0px"
	 viewBox="0 0 128 128" style="enable-background:new 0 0 128 128;" xml:space="preserve">
<style type="text/css">
	.st0{fill:#020202;}
	.st1{fill:#606060;}
	.st2{fill:#FFFFFF;}
</style>
<g id="Base">
</g>
<g id="Content">
	<path d="M95.69,16H32.31C27.74,16,24,19.74,24,24.31v79.38c0,4.57,3.74,8.31,8.31,8.31h63.38c4.57,0,8.31-3.74,8.31-8.31V24.31
		C104,19.74,100.26,16,95.69,16z M77,24c2.21,0,4,1.79,4,4c0,2.21-1.79,4-4,4s-4-1.79-4-4C73,25.79,74.79,24,77,24z M96,95.69
		c0,4.57-3.74,8.31-8.31,8.31H40.31c-4.57,0-8.31-3.74-8.31-8.31V48.31c0-4.57,3.74-8.31,8.31-8.31h47.38
		c4.57,0,8.31,3.74,8.31,8.31V95.69z M92,32c-2.21,0-4-1.79-4-4c0-2.21,1.79-4,4-4s4,1.79,4,4C96,30.21,94.21,32,92,32z"/>
	<circle cx="64" cy="72" r="20"/>
</g>
</svg>
