<?xml version="1.0" encoding="utf-8"?>
<!-- Generator: Adobe Illustrator 26.0.2, SVG Export Plug-In . SVG Version: 6.00 Build 0)  -->
<svg version="1.1" xmlns="http://www.w3.org/2000/svg" xmlns:xlink="http://www.w3.org/1999/xlink" x="0px" y="0px"
	 viewBox="0 0 128 128" style="enable-background:new 0 0 128 128;" xml:space="preserve">
<style type="text/css">
	.st0{fill:#020202;}
	.st1{fill:#606060;}
	.st2{fill:#FFFFFF;}
</style>
<g id="Base">
</g>
<g id="Content">
	<g>
		<g>
			<path d="M64,72L64,72c-4.4,0-8-3.6-8-8v0c0-4.4,3.6-8,8-8h0c4.4,0,8,3.6,8,8v0C72,68.4,68.4,72,64,72z"/>
			<path d="M65.84,64.78c-0.29,0.69-7.28,16.95-17.46,26.67c-7.95,7.58-22.41,16.79-28.53,20.55H16v-2.33
				c4.31-2.62,21.14-13.03,29.62-21.12c9.58-9.13,16.47-25.17,16.54-25.33L65.84,64.78z"/>
		</g>
		<path d="M105.94,105.94L105.94,105.94c-0.78,0.78-2.05,0.78-2.83,0L38.06,40.89c-0.78-0.78-0.78-2.05,0-2.83l0,0
			c0.78-0.78,2.05-0.78,2.83,0l65.05,65.05C106.72,103.89,106.72,105.16,105.94,105.94z"/>
	</g>
	<path d="M19.65,40.92l23.02,13.83c1.19,0.71,2.71,0.53,3.69-0.45l7.9-7.9c0.98-0.98,1.17-2.49,0.46-3.68L40.98,19.62
		c-1.01-1.69-3.34-1.98-4.73-0.59L19.08,36.2C17.69,37.59,17.97,39.91,19.65,40.92z"/>
</g>
</svg>
