<?xml version="1.0" encoding="utf-8"?>
<!-- Generator: Adobe Illustrator 26.0.2, SVG Export Plug-In . SVG Version: 6.00 Build 0)  -->
<svg version="1.1" xmlns="http://www.w3.org/2000/svg" xmlns:xlink="http://www.w3.org/1999/xlink" x="0px" y="0px"
	 viewBox="0 0 128 128" style="enable-background:new 0 0 128 128;" xml:space="preserve">
<style type="text/css">
	.st0{fill:#020202;}
	.st1{fill:#606060;}
	.st2{fill:#FFFFFF;}
</style>
<g id="Base">
</g>
<g id="Content">
	<g>
		<path d="M104,63v10c0,3.71-2.05,6.96-5.06,8.69C98.27,74.01,91.85,68,84,68c-8.29,0-15,6.71-15,15H57.75c0-8.29-6.71-15-15-15
			c-7.57,0-13.84,5.61-14.85,12.91C25.52,79.07,24,76.21,24,73V63c0-5.31,4.19-9.68,9.43-9.99l1.58-11.07
			c0.57-3.98,3.98-6.94,8-6.94h32.3c2.9,0,5.58,1.56,7.02,4.07l6.76,11.83c0.39,0.68,0.67,1.39,0.85,2.1H94C99.5,53,104,57.5,104,63
			z"/>
		<circle cx="42.75" cy="83" r="10"/>
		<circle cx="84" cy="83" r="10"/>
	</g>
</g>
</svg>
