<?xml version="1.0" encoding="utf-8"?>
<!-- Generator: Adobe Illustrator 26.0.2, SVG Export Plug-In . SVG Version: 6.00 Build 0)  -->
<svg version="1.1" xmlns="http://www.w3.org/2000/svg" xmlns:xlink="http://www.w3.org/1999/xlink" x="0px" y="0px"
	 viewBox="0 0 128 128" style="enable-background:new 0 0 128 128;" xml:space="preserve">
<style type="text/css">
	.st0{fill:#020202;}
	.st1{fill:#606060;}
	.st2{fill:#FFFFFF;}
</style>
<g id="Base">
	<path d="M97.81,29.93c5.66,5.66,11.31,11.31-22.63,45.25s-39.6,28.28-45.25,22.63c-5.78-5.78-5.1-16.69,0.69-28.6
		c4.26,1.03,12.75,8.1,12.75,8.1s-1.25-12.74-8.75-15.2c2.16-3.4,4.7-6.82,7.59-10.15c5.4,2.73,13.18,9.09,13.18,9.09
		s-1.97-12.08-6.64-15.93l-0.01-0.01c3.57-3.39,7.27-6.38,10.98-8.92c1.18,1.63,2.38,3.58,3.4,5.81c3.58,7.74,4.99,9.15,4.99,9.15
		s1-13.57-0.91-19.51C79.88,24.92,91.7,23.82,97.81,29.93z"/>
</g>
<g id="Content">
</g>
</svg>
