<?xml version="1.0" encoding="utf-8"?>
<!-- Generator: Adobe Illustrator 26.0.2, SVG Export Plug-In . SVG Version: 6.00 Build 0)  -->
<svg version="1.1" xmlns="http://www.w3.org/2000/svg" xmlns:xlink="http://www.w3.org/1999/xlink" x="0px" y="0px"
	 viewBox="0 0 128 128" style="enable-background:new 0 0 128 128;" xml:space="preserve">
<style type="text/css">
	.st0{fill:#020202;}
	.st1{fill:#606060;}
	.st2{fill:#FFFFFF;}
</style>
<g id="Base">
</g>
<g id="Content">
	<g>
		<path d="M97.96,103.97L97.96,103.97c-1.56,1.56-4.1,1.56-5.66,0L30.08,41.75c-1.56-1.56-1.56-4.1,0-5.66l0,0
			c1.56-1.56,4.1-1.56,5.66,0l62.23,62.23C99.51,99.87,99.51,102.42,97.96,103.97z"/>
		<path d="M28.9,105.15L28.9,105.15c-1.56-1.56-1.56-4.1,0-5.66l56.57-56.57c1.56-1.56,4.1-1.56,5.66,0l0,0
			c1.56,1.56,1.56,4.1,0,5.66l-56.57,56.57C33.01,106.7,30.46,106.7,28.9,105.15z"/>
		<path d="M49.62,37.43L31.3,55.75c-1.19,1.19-3.12,1.19-4.31,0L16.75,45.51c-1.19-1.19-1.19-3.12,0-4.31l18.32-18.32
			c1.19-1.19,3.12-1.19,4.31,0l10.24,10.24C50.81,34.31,50.81,36.24,49.62,37.43z"/>
		<path d="M107.46,49c-6.25,6.25-16.38,6.25-22.63,0c-6.25-6.25-6.25-16.38,0-22.63c4.19-4.19,10.13-5.57,15.46-4.14L89.07,33.45
			l2.83,8.49l8.49,2.83l11.21-11.21C113.03,38.88,111.64,44.82,107.46,49z"/>
	</g>
</g>
</svg>
