<?xml version="1.0" encoding="utf-8"?>
<!-- Generator: Adobe Illustrator 26.0.2, SVG Export Plug-In . SVG Version: 6.00 Build 0)  -->
<svg version="1.1" xmlns="http://www.w3.org/2000/svg" xmlns:xlink="http://www.w3.org/1999/xlink" x="0px" y="0px"
	 viewBox="0 0 128 128" style="enable-background:new 0 0 128 128;" xml:space="preserve">
<style type="text/css">
	.st0{fill:#020202;}
	.st1{fill:#606060;}
	.st2{fill:#FFFFFF;}
</style>
<g id="Base">
</g>
<g id="Content">
	<path d="M87.67,108.03H40.33c-1.09,0-2.09-0.58-2.63-1.52l-23.67-41c-0.54-0.94-0.54-2.1,0-3.04l23.67-41
		c0.54-0.94,1.55-1.52,2.63-1.52h47.34c1.09,0,2.09,0.58,2.63,1.52l23.67,41c0.54,0.94,0.54,2.1,0,3.04l-23.67,41
		C89.76,107.46,88.75,108.03,87.67,108.03z M42.64,104.03h42.72c1.09,0,2.09-0.58,2.63-1.52l21.36-37c0.54-0.94,0.54-2.1,0-3.04
		l-21.36-37c-0.54-0.94-1.55-1.52-2.63-1.52H42.64c-1.09,0-2.09,0.58-2.63,1.52l-21.36,37c-0.54,0.94-0.54,2.1,0,3.04l21.36,37
		C40.55,103.46,41.55,104.03,42.64,104.03z"/>
	<path d="M78,98H50c-1.1,0-2-0.9-2-2l0,0c0-1.1,0.9-2,2-2h28c1.1,0,2,0.9,2,2l0,0C80,97.1,79.1,98,78,98z"/>
	<path d="M27,63L27,63c-0.96-0.55-1.28-1.78-0.73-2.73l15.99-27.54c0.55-0.96,1.78-1.28,2.73-0.73l0,0
		c0.96,0.55,1.28,1.78,0.73,2.73L29.73,62.27C29.18,63.23,27.96,63.55,27,63z"/>
	<path d="M97.27,62.25L82.25,35.73C81.7,34.77,82.04,33.54,83,33h0c0.96-0.54,2.18-0.21,2.73,0.75l15.03,26.52
		c0.54,0.96,0.21,2.18-0.75,2.73h0C99.04,63.54,97.82,63.21,97.27,62.25z"/>
</g>
</svg>
