<?xml version="1.0" encoding="utf-8"?>
<!-- Generator: Adobe Illustrator 26.0.2, SVG Export Plug-In . SVG Version: 6.00 Build 0)  -->
<svg version="1.1" xmlns="http://www.w3.org/2000/svg" xmlns:xlink="http://www.w3.org/1999/xlink" x="0px" y="0px"
	 viewBox="0 0 128 128" style="enable-background:new 0 0 128 128;" xml:space="preserve">
<style type="text/css">
	.st0{fill:#020202;}
	.st1{fill:#606060;}
	.st2{fill:#FFFFFF;}
</style>
<g id="Base">
	<path d="M100,68c1.1,0,2.1-0.45,2.82-1.18C103.55,66.1,104,65.1,104,64c0-2.2-1.8-4-4-4h-4v-8h4c1.1,0,2.1-0.45,2.82-1.18
		C103.55,50.1,104,49.1,104,48c0-2.2-1.8-4-4-4h-4v-4c0-4.4-3.6-8-8-8H40c-4.4,0-8,3.6-8,8v4h-4c-1.1,0-2.1,0.45-2.82,1.18
		C24.45,45.9,24,46.9,24,48c0,2.2,1.8,4,4,4h4v8h-4c-1.1,0-2.1,0.45-2.82,1.18C24.45,61.9,24,62.9,24,64c0,2.2,1.8,4,4,4h4v8h-4
		c-1.1,0-2.1,0.45-2.82,1.18C24.45,77.9,24,78.9,24,80c0,2.2,1.8,4,4,4h4v4c0,4.4,3.6,8,8,8h48c4.4,0,8-3.6,8-8v-4h4
		c1.1,0,2.1-0.45,2.82-1.18C103.55,82.1,104,81.1,104,80c0-2.2-1.8-4-4-4h-4v-8H100z M84,76c0,4.4-3.6,8-8,8H52c-4.4,0-8-3.6-8-8V52
		c0-4.4,3.6-8,8-8h24c4.4,0,8,3.6,8,8V76z"/>
</g>
<g id="Content">
</g>
</svg>
