<?xml version="1.0" encoding="utf-8"?>
<!-- Generator: Adobe Illustrator 26.0.2, SVG Export Plug-In . SVG Version: 6.00 Build 0)  -->
<svg version="1.1" xmlns="http://www.w3.org/2000/svg" xmlns:xlink="http://www.w3.org/1999/xlink" x="0px" y="0px"
	 viewBox="0 0 128 128" style="enable-background:new 0 0 128 128;" xml:space="preserve">
<style type="text/css">
	.st0{fill:#020202;}
	.st1{fill:#606060;}
	.st2{fill:#FFFFFF;}
</style>
<g id="Base">
</g>
<g id="Content">
	<g>
		<path d="M116.16,40l-28.25,72H32c4.04,0,7.62-2,9.79-5.06c0.34-0.48,0.65-0.99,0.91-1.52l0.02-0.03l1.39-2.31L71.92,40H116.16z"/>
		<path d="M37,101c0,1.62-0.38,3.14-1.07,4.49l-0.02,0.02c-0.22,0.44-0.48,0.87-0.76,1.27C33.35,109.33,30.37,111,27,111
			c-5.53,0-10-4.47-10-10c0-0.75,0.08-1.48,0.24-2.17c0.04-0.22,0.09-0.43,0.16-0.62c0.25-0.89,0.63-1.73,1.11-2.49
			C20.27,92.88,23.42,91,27,91c2.94,0,5.59,1.27,7.42,3.29C36.03,96.06,37,98.42,37,101z"/>
		<path d="M72,28c0,1.87-0.42,3.63-1.18,5.21C68.88,37.23,64.77,40,60,40c-6.63,0-12-5.37-12-12c0-1.21,0.18-2.38,0.52-3.48
			c0.28-0.98,0.7-1.9,1.21-2.75l0.02-0.03c1-1.62,2.38-3,4-4C55.57,16.64,57.71,16,60,16c5.86,0,10.74,4.2,11.79,9.75
			C71.93,26.48,72,27.23,72,28z"/>
		<path d="M37.79,106.94l0.91-1.52C38.44,105.95,38.13,106.46,37.79,106.94z"/>
		<path d="M70.9,33.25L67.92,40l-27.81,63.08l-1.39,2.31c0.82-1.62,1.28-3.45,1.28-5.39c0-3.1-1.17-5.93-3.09-8.05
			C34.71,89.52,31.53,88,28,88c-4.3,0-8.07,2.26-10.19,5.65l30.71-69.13C48.18,25.62,48,26.79,48,28c0,6.63,5.37,12,12,12
			c4.77,0,8.88-2.77,10.82-6.79L70.9,33.25z"/>
	</g>
</g>
</svg>
