<?xml version="1.0" encoding="utf-8"?>
<!-- Generator: Adobe Illustrator 26.0.2, SVG Export Plug-In . SVG Version: 6.00 Build 0)  -->
<svg version="1.1" xmlns="http://www.w3.org/2000/svg" xmlns:xlink="http://www.w3.org/1999/xlink" x="0px" y="0px"
	 viewBox="0 0 128 128" style="enable-background:new 0 0 128 128;" xml:space="preserve">
<style type="text/css">
	.st0{fill:#020202;}
	.st1{fill:#606060;}
	.st2{fill:#FFFFFF;}
</style>
<g id="Base">
	<g>
		<path d="M17.67,58h92.66l-5.64,33.83c-0.4,2.41-2.48,4.17-4.91,4.17H92c0-6.63-5.37-12-12-12s-12,5.37-12,12h-8
			c0-6.63-5.37-12-12-12s-12,5.37-12,12h-7.78c-2.43,0-4.51-1.76-4.91-4.17L17.67,58z"/>
		<path d="M111.03,53.81L111,54H17l-0.03-0.19C16.46,50.77,18.81,48,21.89,48h84.22C109.19,48,111.54,50.77,111.03,53.81z"/>
		<circle cx="48" cy="96" r="8"/>
		<circle cx="80" cy="96" r="8"/>
	</g>
</g>
<g id="Content">
	<path d="M103.42,44H24.58c1.19-2.94,4.06-5,7.42-5c0.56,0,1.1,0.06,1.62,0.16c2.28-4.93,6.79-8.62,12.23-9.77
		C48.24,21.64,55.46,16,64,16c5.98,0,11.31,2.76,14.79,7.09C79.19,23.03,79.59,23,80,23c4.42,0,8,3.58,8,8
		c0,0.23-0.01,0.46-0.03,0.68c3.43,1.19,6.16,3.92,7.35,7.35C95.54,39.01,95.77,39,96,39C99.36,39,102.23,41.06,103.42,44z"/>
</g>
</svg>
