<?xml version="1.0" encoding="utf-8"?>
<!-- Generator: Adobe Illustrator 26.0.2, SVG Export Plug-In . SVG Version: 6.00 Build 0)  -->
<svg version="1.1" xmlns="http://www.w3.org/2000/svg" xmlns:xlink="http://www.w3.org/1999/xlink" x="0px" y="0px"
	 viewBox="0 0 128 128" style="enable-background:new 0 0 128 128;" xml:space="preserve">
<style type="text/css">
	.st0{fill:#020202;}
	.st1{fill:#606060;}
	.st2{fill:#FFFFFF;}
</style>
<g id="Base">
	<g>
		<path d="M17.06,110.94L17.06,110.94c-0.78-0.78-0.78-2.05,0-2.83l65.05-65.05c0.78-0.78,2.05-0.78,2.83,0v0
			c0.78,0.78,0.78,2.05,0,2.83l-65.05,65.05C19.11,111.72,17.84,111.72,17.06,110.94z"/>
		<path d="M86,29c0,6.63-6,12-6,12s-6-5.37-6-12s6-12,6-12S86,22.37,86,29z"/>
		<path d="M69.92,45.4c0,6.63-6,12-6,12s-6-5.37-6-12s6-12,6-12S69.92,38.77,69.92,45.4z"/>
		<path d="M53.92,61.4c0,6.63-6,12-6,12s-6-5.37-6-12s6-12,6-12S53.92,54.77,53.92,61.4z"/>
		<path d="M37.92,77.4c0,6.63-6,12-6,12s-6-5.37-6-12s6-12,6-12S37.92,70.77,37.92,77.4z"/>
		<path d="M50.92,102.4c-6.63,0-12-6-12-6s5.37-6,12-6s12,6,12,6S57.54,102.4,50.92,102.4z"/>
		<path d="M66.92,86.4c-6.63,0-12-6-12-6s5.37-6,12-6s12,6,12,6S73.54,86.4,66.92,86.4z"/>
		<path d="M82.92,70.4c-6.63,0-12-6-12-6s5.37-6,12-6c6.63,0,12,6,12,6S89.54,70.4,82.92,70.4z"/>
		<path d="M98.92,54.4c-6.63,0-12-6-12-6s5.37-6,12-6c6.63,0,12,6,12,6S105.54,54.4,98.92,54.4z"/>
		<path d="M103.16,33.75c-4.69,4.69-12.73,4.24-12.73,4.24s-0.44-8.04,4.24-12.73s12.73-4.24,12.73-4.24S107.84,29.06,103.16,33.75z
			"/>
	</g>
</g>
<g id="Content">
</g>
</svg>
