<?xml version="1.0" encoding="utf-8"?>
<!-- Generator: Adobe Illustrator 26.0.2, SVG Export Plug-In . SVG Version: 6.00 Build 0)  -->
<svg version="1.1" xmlns="http://www.w3.org/2000/svg" xmlns:xlink="http://www.w3.org/1999/xlink" x="0px" y="0px"
	 viewBox="0 0 128 128" style="enable-background:new 0 0 128 128;" xml:space="preserve">
<style type="text/css">
	.st0{fill:#020202;}
	.st1{fill:#606060;}
	.st2{fill:#FFFFFF;}
</style>
<g id="Base">
	<g>
		<path d="M104,65.88H24c0.11,0,0.91-16.31,4.53-21.46c7.75-11.07,19.93-13.28,19.93-13.28L104,65.88z"/>
		<path d="M103.7,79.69V70.3H92.54c0.76,1.3,1.2,2.81,1.2,4.43c0,4.89-3.96,8.86-8.86,8.86c-4.89,0-8.86-3.96-8.86-8.86
			c0-1.62,0.43-3.13,1.2-4.43H56.1c0,4.89-3.96,8.86-8.86,8.86s-8.86-3.96-8.86-8.86H24v26.57h79.7v-8.48
			c-2.05-0.39-3.6-2.19-3.6-4.35S101.65,80.08,103.7,79.69z M63.85,91.34c-2.45,0-4.43-1.98-4.43-4.43c0-2.45,1.98-4.43,4.43-4.43
			s4.43,1.98,4.43,4.43C68.28,89.35,66.3,91.34,63.85,91.34z"/>
	</g>
</g>
<g id="Content">
</g>
</svg>
