<?xml version="1.0" encoding="utf-8"?>
<!-- Generator: Adobe Illustrator 26.0.2, SVG Export Plug-In . SVG Version: 6.00 Build 0)  -->
<svg version="1.1" xmlns="http://www.w3.org/2000/svg" xmlns:xlink="http://www.w3.org/1999/xlink" x="0px" y="0px"
	 viewBox="0 0 128 128" style="enable-background:new 0 0 128 128;" xml:space="preserve">
<style type="text/css">
	.st0{fill:#020202;}
	.st1{fill:#606060;}
	.st2{fill:#FFFFFF;}
</style>
<g id="Base">
</g>
<g id="Content">
	<path d="M87.89,16H40.11C35.65,16,32,19.65,32,24.11v79.78c0,4.46,3.65,8.11,8.11,8.11h47.78c4.46,0,8.11-3.65,8.11-8.11V24.11
		C96,19.65,92.35,16,87.89,16z M64,110c-3.31,0-6-2.69-6-6s2.69-6,6-6s6,2.69,6,6S67.31,110,64,110z M87,87.89
		c0,4.46-3.65,8.11-8.11,8.11H47.11C42.65,96,39,92.35,39,87.89V32.11c0-4.46,3.65-8.11,8.11-8.11h31.78c4.46,0,8.11,3.65,8.11,8.11
		V87.89z"/>
</g>
</svg>
