<?xml version="1.0" encoding="utf-8"?>
<!-- Generator: Adobe Illustrator 26.0.2, SVG Export Plug-In . SVG Version: 6.00 Build 0)  -->
<svg version="1.1" xmlns="http://www.w3.org/2000/svg" xmlns:xlink="http://www.w3.org/1999/xlink" x="0px" y="0px"
	 viewBox="0 0 128 128" style="enable-background:new 0 0 128 128;" xml:space="preserve">
<style type="text/css">
	.st0{fill:#020202;}
	.st1{fill:#606060;}
	.st2{fill:#FFFFFF;}
</style>
<g id="Base">
</g>
<g id="Content">
	<g>
		<g>
			<path d="M64,72L64,72c-4.4,0-8-3.6-8-8v0c0-4.4,3.6-8,8-8h0c4.4,0,8,3.6,8,8v0C72,68.4,68.4,72,64,72z"/>
			<path d="M65.84,64.78c-0.29,0.69-7.28,16.95-17.46,26.67c-7.95,7.58-22.41,16.79-28.53,20.55H16v-2.33
				c4.31-2.62,21.14-13.03,29.62-21.12c9.58-9.13,16.47-25.17,16.54-25.33L65.84,64.78z"/>
		</g>
		<path d="M105.94,105.94L105.94,105.94c-0.78,0.78-2.05,0.78-2.83,0L38.06,40.89c-0.78-0.78-0.78-2.05,0-2.83l0,0
			c0.78-0.78,2.05-0.78,2.83,0l65.05,65.05C106.72,103.89,106.72,105.16,105.94,105.94z"/>
	</g>
	<path d="M23.84,37.29l9.37-9.37c3.08-3.08,6.59-5.68,10.43-7.71c4.03-2.13,9.12-4.38,12.83-4.51c0.48-0.02,0.96-0.02,1.44,0
		c4.52,0.13,6.1,6.01,2.41,8.62c-0.05,0.03-0.1,0.07-0.15,0.1C55.34,27.86,48.1,35.11,48.1,35.11L34.88,48.32
		c-1.84,1.84-4.83,1.84-6.68,0l-4.36-4.36C22,42.12,22,39.13,23.84,37.29z"/>
</g>
</svg>
