<?xml version="1.0" encoding="utf-8"?>
<!-- Generator: Adobe Illustrator 26.0.2, SVG Export Plug-In . SVG Version: 6.00 Build 0)  -->
<svg version="1.1" xmlns="http://www.w3.org/2000/svg" xmlns:xlink="http://www.w3.org/1999/xlink" x="0px" y="0px"
	 viewBox="0 0 128 128" style="enable-background:new 0 0 128 128;" xml:space="preserve">
<style type="text/css">
	.st0{fill:#020202;}
	.st1{fill:#606060;}
	.st2{fill:#FFFFFF;}
</style>
<g id="Base">
</g>
<g id="Content">
	<path d="M91.08,36H36.92c-2.7,0-4.92,2.22-4.92,4.92v66.16c0,2.7,2.22,4.92,4.92,4.92h54.16c2.7,0,4.92-2.22,4.92-4.92V40.92
		C96,38.22,93.78,36,91.08,36z M75.51,55.42c4.21-4.21,11.43-3.81,11.43-3.81s0.4,7.23-3.81,11.44S71.7,66.86,71.7,66.86
		S71.3,59.63,75.51,55.42z M62.33,48c0,0,5.39,4.83,5.39,10.78s-5.39,10.78-5.39,10.78s-5.39-4.83-5.39-10.78S62.33,48,62.33,48z
		 M47.87,62.73c0,0,5.4,4.83,5.4,10.79c0,5.95-5.4,10.78-5.4,10.78s-5.39-4.83-5.39-10.78C42.48,67.56,47.87,62.73,47.87,62.73z
		 M38.43,100.18c-0.7-0.7-0.7-1.84,0-2.54l27.29-27.29c0.7-0.7,1.84-0.7,2.54,0c0.35,0.35,0.52,0.81,0.52,1.27
		c0,0.46-0.17,0.92-0.52,1.27l-27.29,27.29C40.27,100.88,39.12,100.88,38.43,100.18z M64.94,95.97c-5.95,0-10.78-5.39-10.78-5.39
		s4.83-5.39,10.78-5.39c5.96,0,10.78,5.39,10.78,5.39S70.9,95.97,64.94,95.97z M79.32,81.6c-5.96,0-10.78-5.39-10.78-5.39
		s4.82-5.39,10.78-5.39c5.95,0,10.78,5.39,10.78,5.39S85.27,81.6,79.32,81.6z"/>
	<path d="M88,24H40c-2.2,0-4,1.8-4,4v0c0,2.2,1.8,4,4,4h48c2.2,0,4-1.8,4-4v0C92,25.8,90.2,24,88,24z"/>
</g>
</svg>
