<?xml version="1.0" encoding="utf-8"?>
<!-- Generator: Adobe Illustrator 26.0.2, SVG Export Plug-In . SVG Version: 6.00 Build 0)  -->
<svg version="1.1" xmlns="http://www.w3.org/2000/svg" xmlns:xlink="http://www.w3.org/1999/xlink" x="0px" y="0px"
	 viewBox="0 0 128 128" style="enable-background:new 0 0 128 128;" xml:space="preserve">
<style type="text/css">
	.st0{fill:#020202;}
	.st1{fill:#606060;}
	.st2{fill:#FFFFFF;}
</style>
<g id="Base">
</g>
<g id="Content">
	<g>
		<g>
			<path d="M64,72L64,72c-4.4,0-8-3.6-8-8v0c0-4.4,3.6-8,8-8h0c4.4,0,8,3.6,8,8v0C72,68.4,68.4,72,64,72z"/>
			<path d="M65.84,64.78c-0.29,0.69-7.28,16.95-17.46,26.67c-7.95,7.58-22.41,16.79-28.53,20.55H16v-2.33
				c4.31-2.62,21.14-13.03,29.62-21.12c9.58-9.13,16.47-25.17,16.54-25.33L65.84,64.78z"/>
		</g>
		<path d="M105.94,105.94L105.94,105.94c-0.78,0.78-2.05,0.78-2.83,0L38.06,40.89c-0.78-0.78-0.78-2.05,0-2.83l0,0
			c0.78-0.78,2.05-0.78,2.83,0l65.05,65.05C106.72,103.89,106.72,105.16,105.94,105.94z"/>
	</g>
	<path d="M25.26,44.44c-0.98-0.98-0.98-2.56,0-3.53l9.55-9.55c1.94-1.94,3.89-9.2,4.93-13.56c0.39-1.67,2.3-2.45,3.75-1.54
		c3.36,2.1,8.58,5.49,10.44,7.35c1.84,1.84,5.14,7.04,7.21,10.43c0.9,1.48,0.06,3.4-1.64,3.74c-4.21,0.84-11.01,2.51-13.38,4.88
		c-2.47,2.47-6.97,7.07-9.45,9.61c-0.97,0.99-2.57,1-3.55,0.02L25.26,44.44z"/>
</g>
</svg>
