<?xml version="1.0" encoding="utf-8"?>
<!-- Generator: Adobe Illustrator 26.0.2, SVG Export Plug-In . SVG Version: 6.00 Build 0)  -->
<svg version="1.1" xmlns="http://www.w3.org/2000/svg" xmlns:xlink="http://www.w3.org/1999/xlink" x="0px" y="0px"
	 viewBox="0 0 128 128" style="enable-background:new 0 0 128 128;" xml:space="preserve">
<style type="text/css">
	.st0{fill:#020202;}
	.st1{fill:#606060;}
	.st2{fill:#FFFFFF;}
</style>
<g id="Base">
	<g>
		<path d="M93.51,87.75c-1,10.36-10,21.75-17,22.79c-7,1.03-16,2.07-20,1.03c-4-1.03-21-8.28-22-20.71s6-23.82,11-30.04
			c5-6.21,5-15.53,10-19.68c4-3.31,8.65-3.98,10.34-4.11l6.36-17.41c0.28-0.77,1.14-1.17,1.92-0.89c0.6,0.22,0.98,0.8,0.98,1.41
			c0,0.17-0.03,0.34-0.09,0.51l-6.19,16.93c1.52,0.61,3.6,1.91,5.68,4.6c4,5.18,6,13.46,9,18.64S94.51,77.39,93.51,87.75z"/>
		<path d="M45.24,19.88c0,0,9.67-4.98,15.89-2.71c6.23,2.28,6.65,10.95,6.65,10.95s-5.91,6.36-12.14,4.08
			C49.42,29.93,45.24,19.88,45.24,19.88z"/>
	</g>
</g>
<g id="Content">
</g>
</svg>
