<?xml version="1.0" encoding="utf-8"?>
<!-- Generator: Adobe Illustrator 26.0.2, SVG Export Plug-In . SVG Version: 6.00 Build 0)  -->
<svg version="1.1" xmlns="http://www.w3.org/2000/svg" xmlns:xlink="http://www.w3.org/1999/xlink" x="0px" y="0px"
	 viewBox="0 0 128 128" style="enable-background:new 0 0 128 128;" xml:space="preserve">
<style type="text/css">
	.st0{fill:#020202;}
	.st1{fill:#606060;}
	.st2{fill:#FFFFFF;}
</style>
<g id="Base">
	<path d="M111.59,29.26l-2.25,4.51v45.34c0,1.39-0.57,2.64-1.49,3.55c-0.91,0.92-2.17,1.49-3.55,1.49c-2.77,0-5.04-2.27-5.04-5.04
		v-25.2l-3.98,7.96C94.64,63.18,93.3,64,91.85,64h-2.67v35.26c0,1.39-0.57,2.64-1.49,3.55c-0.91,0.92-2.17,1.49-3.55,1.49
		c-2.77,0-5.04-2.27-5.04-5.04V64H53.93v15.11c0,1.39-0.57,2.64-1.49,3.55c-0.91,0.92-2.17,1.49-3.55,1.49
		c-2.77,0-5.04-2.27-5.04-5.04V64H33.78v35.26c0,1.39-0.57,2.64-1.49,3.55c-0.91,0.92-2.17,1.49-3.55,1.49
		c-2.77,0-5.04-2.27-5.04-5.04V64h-3.87c-2.85,0-4.71-3.01-3.43-5.55l16.31-32.61c0.64-1.31,1.98-2.13,3.43-2.13h72.02
		C111.01,23.7,112.87,26.71,111.59,29.26z"/>
</g>
<g id="Content">
</g>
</svg>
