<?xml version="1.0" encoding="utf-8"?>
<!-- Generator: Adobe Illustrator 26.0.2, SVG Export Plug-In . SVG Version: 6.00 Build 0)  -->
<svg version="1.1" xmlns="http://www.w3.org/2000/svg" xmlns:xlink="http://www.w3.org/1999/xlink" x="0px" y="0px"
	 viewBox="0 0 128 128" style="enable-background:new 0 0 128 128;" xml:space="preserve">
<style type="text/css">
	.st0{fill:#020202;}
	.st1{fill:#606060;}
	.st2{fill:#FFFFFF;}
</style>
<g id="Base">
</g>
<g id="Content">
	<path d="M50.92,60H37.08C34.29,60,32,57.71,32,54.92V41.08c0-2.79,2.29-5.08,5.08-5.08h13.84c2.79,0,5.08,2.29,5.08,5.08v13.84
		C56,57.71,53.71,60,50.92,60z"/>
	<path d="M90.92,60H77.08C74.29,60,72,57.71,72,54.92V41.08c0-2.79,2.29-5.08,5.08-5.08h13.84c2.79,0,5.08,2.29,5.08,5.08v13.84
		C96,57.71,93.71,60,90.92,60z"/>
	<path d="M108.48,67.52C106.3,65.35,103.3,64,100,64H28c-6.6,0-12,5.4-12,12c0,3.3,1.35,6.3,3.52,8.48C21.7,86.65,24.7,88,28,88h4
		v20c0,2.2,1.8,4,4,4s4-1.8,4-4V88h48v20c0,2.2,1.8,4,4,4s4-1.8,4-4V88h4c6.6,0,12-5.4,12-12C112,72.7,110.65,69.7,108.48,67.52z
		 M29,84c-4.42,0-8-3.58-8-8c0-4.42,3.58-8,8-8s8,3.58,8,8C37,80.42,33.42,84,29,84z M53,84c-4.42,0-8-3.58-8-8c0-4.42,3.58-8,8-8
		s8,3.58,8,8C61,80.42,57.42,84,53,84z M77,84c-4.42,0-8-3.58-8-8c0-4.42,3.58-8,8-8s8,3.58,8,8C85,80.42,81.42,84,77,84z M101,84
		c-4.42,0-8-3.58-8-8c0-4.42,3.58-8,8-8s8,3.58,8,8C109,80.42,105.42,84,101,84z"/>
</g>
</svg>
