<?xml version="1.0" encoding="utf-8"?>
<!-- Generator: Adobe Illustrator 26.0.2, SVG Export Plug-In . SVG Version: 6.00 Build 0)  -->
<svg version="1.1" xmlns="http://www.w3.org/2000/svg" xmlns:xlink="http://www.w3.org/1999/xlink" x="0px" y="0px"
	 viewBox="0 0 128 128" style="enable-background:new 0 0 128 128;" xml:space="preserve">
<style type="text/css">
	.st0{fill:#020202;}
	.st1{fill:#606060;}
	.st2{fill:#FFFFFF;}
</style>
<g id="Base">
	<g>
		<path d="M104,81.5H24c0-20.74,15.79-37.8,36-39.8v-3.2c0-2.2,1.8-4,4-4c1.1,0,2.1,0.45,2.82,1.18C67.55,36.4,68,37.4,68,38.5v3.2
			C88.21,43.7,104,60.76,104,81.5z"/>
		<path d="M108,93.5H20c-2.2,0-4-1.8-4-4v0c0-2.2,1.8-4,4-4h88c2.2,0,4,1.8,4,4v0C112,91.7,110.2,93.5,108,93.5z"/>
	</g>
</g>
<g id="Content">
</g>
</svg>
