<?xml version="1.0" encoding="utf-8"?>
<!-- Generator: Adobe Illustrator 26.0.2, SVG Export Plug-In . SVG Version: 6.00 Build 0)  -->
<svg version="1.1" xmlns="http://www.w3.org/2000/svg" xmlns:xlink="http://www.w3.org/1999/xlink" x="0px" y="0px"
	 viewBox="0 0 128 128" style="enable-background:new 0 0 128 128;" xml:space="preserve">
<style type="text/css">
	.st0{fill:#020202;}
	.st1{fill:#606060;}
	.st2{fill:#FFFFFF;}
</style>
<g id="Base">
</g>
<g id="Content">
	<g>
		<path d="M104,71c0,0.34-0.02,0.67-0.06,1H104c0,8.84-7.16,16-16,16v4c0,1.1-0.45,2.1-1.18,2.82C86.1,95.55,85.1,96,84,96
			c-2.2,0-4-1.8-4-4v-4H48v4c0,1.1-0.45,2.1-1.18,2.82C46.1,95.55,45.1,96,44,96c-2.2,0-4-1.8-4-4v-4c-4.42,0-8.42-1.79-11.32-4.68
			C25.79,80.42,24,76.42,24,72h0.06C24.02,71.67,24,71.34,24,71v-7c0-4.4,3.6-8,8-8c2.2,0,4.2,0.9,5.65,2.35
			C39.1,59.8,40,61.8,40,64v7c0,0.34-0.02,0.67-0.06,1h48.12C88.02,71.67,88,71.34,88,71v-7c0-4.4,3.6-8,8-8
			c2.2,0,4.2,0.9,5.65,2.35C103.1,59.8,104,61.8,104,64V71z"/>
		<path d="M96,44v9h-4.78C86.97,54.85,84,59.09,84,64v4H44v-4c0-3.2-1.25-6.21-3.52-8.48c-1.08-1.08-2.33-1.93-3.68-2.52H32v-9
			c0-6.6,5.4-12,12-12h40C90.6,32,96,37.4,96,44z"/>
	</g>
</g>
</svg>
