<?xml version="1.0" encoding="utf-8"?>
<!-- Generator: Adobe Illustrator 26.0.2, SVG Export Plug-In . SVG Version: 6.00 Build 0)  -->
<svg version="1.1" xmlns="http://www.w3.org/2000/svg" xmlns:xlink="http://www.w3.org/1999/xlink" x="0px" y="0px"
	 viewBox="0 0 128 128" style="enable-background:new 0 0 128 128;" xml:space="preserve">
<style type="text/css">
	.st0{fill:#020202;}
	.st1{fill:#606060;}
	.st2{fill:#FFFFFF;}
</style>
<g id="Base">
	<path d="M104.05,70.2v-12l-8.92-1.62c-0.74-3.16-1.96-6.13-3.57-8.85l5.23-7.55l-8.48-8.49l-7.4,5.13
		c-2.83-1.76-5.96-3.09-9.29-3.9L70,24H58l-1.62,8.92c-3.15,0.76-6.12,2-8.83,3.63l-7.57-5.24l-8.49,8.48l5.2,7.51
		c-1.66,2.71-2.93,5.69-3.72,8.86l-9.02,1.64v12l8.92,1.62c0.77,3.26,2.04,6.32,3.72,9.11l-5.2,7.52l8.48,8.49l7.5-5.19
		c2.63,1.6,5.51,2.83,8.57,3.62l1.66,9.13h12l1.62-8.92c3.26-0.75,6.33-2,9.13-3.66l7.5,5.19l8.49-8.48l-5.12-7.39
		c1.7-2.76,3-5.78,3.81-9L104.05,70.2z M64,86c-12.15,0-22-9.85-22-22c0-12.15,9.85-22,22-22s22,9.85,22,22C86,76.15,76.15,86,64,86
		z"/>
</g>
<g id="Content">
</g>
</svg>
