<?xml version="1.0" encoding="utf-8"?>
<!-- Generator: Adobe Illustrator 26.0.2, SVG Export Plug-In . SVG Version: 6.00 Build 0)  -->
<svg version="1.1" xmlns="http://www.w3.org/2000/svg" xmlns:xlink="http://www.w3.org/1999/xlink" x="0px" y="0px"
	 viewBox="0 0 128 128" style="enable-background:new 0 0 128 128;" xml:space="preserve">
<style type="text/css">
	.st0{fill:#020202;}
	.st1{fill:#606060;}
	.st2{fill:#FFFFFF;}
</style>
<g id="Base">
	<g>
		<path d="M87.72,47.2L81.03,28c-0.13-0.37-0.3-0.72-0.5-1.04c0.89-0.11,1.69-0.53,2.29-1.14C83.55,25.1,84,24.1,84,23
			c0-2.2-1.8-4-4-4H48c-1.1,0-2.1,0.45-2.82,1.18C44.45,20.9,44,21.9,44,23c0,1.95,1.41,3.58,3.26,3.93
			c-0.23,0.34-0.41,0.72-0.55,1.12l-6.45,19.17c-0.17,0.52-0.26,1.06-0.26,1.6V107c0,2.76,2.24,5,5,5h38c2.76,0,5-2.24,5-5V48.85
			C88,48.29,87.91,47.73,87.72,47.2z M84,101.65c0,2.4-1.82,4.35-4.06,4.35H49.06c-2.24,0-4.06-1.95-4.06-4.35V51.03
			c0-0.45,0.06-0.91,0.2-1.33c3.87,1.02,7.7,2.35,10.66,3.67c5.31,2.37,18.33-1.14,27.96-3.56c0.12,0.4,0.18,0.82,0.18,1.25V101.65z
			"/>
	</g>
</g>
<g id="Content">
</g>
</svg>
