<?xml version="1.0" encoding="utf-8"?>
<!-- Generator: Adobe Illustrator 26.0.2, SVG Export Plug-In . SVG Version: 6.00 Build 0)  -->
<svg version="1.1" xmlns="http://www.w3.org/2000/svg" xmlns:xlink="http://www.w3.org/1999/xlink" x="0px" y="0px"
	 viewBox="0 0 128 128" style="enable-background:new 0 0 128 128;" xml:space="preserve">
<style type="text/css">
	.st0{fill:#020202;}
	.st1{fill:#606060;}
	.st2{fill:#FFFFFF;}
</style>
<g id="Base">
	<g>
		<path d="M17.92,58h92.66l-5.64,33.83c-0.4,2.41-2.48,4.17-4.91,4.17h-7.78c0-6.63-5.37-12-12-12s-12,5.37-12,12h-8
			c0-6.63-5.37-12-12-12s-12,5.37-12,12h-7.78c-2.43,0-4.51-1.76-4.91-4.17L17.92,58z"/>
		<path d="M111.28,53.81L111.25,54h-94l-0.03-0.19C16.71,50.77,19.06,48,22.14,48h84.22C109.44,48,111.79,50.77,111.28,53.81z"/>
		<circle cx="48.25" cy="96" r="8"/>
		<circle cx="80.25" cy="96" r="8"/>
	</g>
</g>
<g id="Content">
	<polygon points="101.99,40.88 100.4,44 27.94,44 26.16,37.7 42.53,17.7 62.66,24.71 64.23,21.63 89.84,18.06 	"/>
</g>
</svg>
