<?xml version="1.0" encoding="utf-8"?>
<!-- Generator: Adobe Illustrator 26.0.2, SVG Export Plug-In . SVG Version: 6.00 Build 0)  -->
<svg version="1.1" xmlns="http://www.w3.org/2000/svg" xmlns:xlink="http://www.w3.org/1999/xlink" x="0px" y="0px"
	 viewBox="0 0 128 128" style="enable-background:new 0 0 128 128;" xml:space="preserve">
<style type="text/css">
	.st0{fill:#020202;}
	.st1{fill:#606060;}
	.st2{fill:#FFFFFF;}
</style>
<g id="Base">
	<path d="M72.78,25.35c1.77,0.53,1.55,3.11-0.29,3.28C60,29.85,48.6,34.71,39.88,43.43c-7.21,7.21-11.78,16.26-13.83,26.24
		c-0.36,1.77-2.92,1.75-3.29-0.02c-2.93-13.82-0.09-27.3,9.03-36.43C41.91,23.09,57.41,20.7,72.78,25.35z"/>
</g>
<g id="Content">
	<g>
		<g>
			<path d="M64,72L64,72c-4.4,0-8-3.6-8-8v0c0-4.4,3.6-8,8-8h0c4.4,0,8,3.6,8,8v0C72,68.4,68.4,72,64,72z"/>
			<path d="M65.84,64.78c-0.29,0.69-7.28,16.95-17.46,26.67c-7.95,7.58-22.41,16.79-28.53,20.55H16v-2.33
				c4.31-2.62,21.14-13.03,29.62-21.12c9.58-9.13,16.47-25.17,16.54-25.33L65.84,64.78z"/>
		</g>
		<path d="M105.94,105.94L105.94,105.94c-0.78,0.78-2.05,0.78-2.83,0L38.06,40.89c-0.78-0.78-0.78-2.05,0-2.83l0,0
			c0.78-0.78,2.05-0.78,2.83,0l65.05,65.05C106.72,103.89,106.72,105.16,105.94,105.94z"/>
	</g>
</g>
</svg>
