<?xml version="1.0" encoding="utf-8"?>
<!-- Generator: Adobe Illustrator 26.0.2, SVG Export Plug-In . SVG Version: 6.00 Build 0)  -->
<svg version="1.1" xmlns="http://www.w3.org/2000/svg" xmlns:xlink="http://www.w3.org/1999/xlink" x="0px" y="0px"
	 viewBox="0 0 128 128" style="enable-background:new 0 0 128 128;" xml:space="preserve">
<style type="text/css">
	.st0{fill:#020202;}
	.st1{fill:#606060;}
	.st2{fill:#FFFFFF;}
</style>
<g id="Base">
</g>
<g id="Content">
	<path d="M96,88v8c0,2.97-1.64,5.57-4.05,6.95C91.42,96.81,86.28,92,80,92c-6.63,0-12,5.37-12,12h-9c0-6.63-5.37-12-12-12
		c-6.06,0-11.07,4.49-11.88,10.33C33.22,100.86,32,98.57,32,96v-8c0-4.4,3.6-8,8-8h48C92.4,80,96,83.6,96,88z"/>
	<path d="M39.51,79v4.5c0,4.4,3.6,8,8,8h16c4.4,0,8-3.6,8-8V79c0-4.4-3.6-8-8-8h-16C43.11,71,39.51,74.6,39.51,79z"/>
	<path d="M57.97,72.78l-24-41.57c-1.1-1.91-3.55-2.57-5.46-1.46l0,0c-1.91,1.1-2.57,3.55-1.46,5.46l24,41.57
		c1.1,1.91,3.55,2.57,5.46,1.46h0C58.42,77.14,59.07,74.7,57.97,72.78z"/>
	<path d="M30.51,37h46c2.21,0,4-1.79,4-4v0c0-2.21-1.79-4-4-4h-46c-2.21,0-4,1.79-4,4v0C26.51,35.21,28.3,37,30.51,37z"/>
	<circle cx="31.01" cy="33.5" r="8.5"/>
	<path d="M76.51,27.59v10.83c0,2.53,2.05,4.59,4.59,4.59h2.74c0.37,0,0.68-0.3,0.68-0.68V23.68c0-0.37-0.3-0.68-0.68-0.68h-2.74
		C78.56,23,76.51,25.05,76.51,27.59z"/>
	<g>
		<path d="M90.04,27.73l-6.93,4c-0.95,0.55-2.18,0.22-2.73-0.73v0c-0.55-0.95-0.22-2.18,0.73-2.73l6.93-4
			c0.95-0.55,2.18-0.22,2.73,0.73v0C91.32,25.95,90.99,27.18,90.04,27.73z"/>
		<path d="M96.48,30l-7.73-2.07c-1.06-0.28-1.7-1.39-1.41-2.45l0,0c0.28-1.06,1.39-1.7,2.45-1.41l7.73,2.07
			c1.06,0.28,1.7,1.39,1.41,2.45v0C98.65,29.65,97.55,30.29,96.48,30z"/>
	</g>
	<g>
		<path d="M90.04,37.85l-6.93-4c-0.95-0.55-2.18-0.22-2.73,0.73v0c-0.55,0.95-0.22,2.18,0.73,2.73l6.93,4
			c0.95,0.55,2.18,0.22,2.73-0.73v0C91.32,39.63,90.99,38.4,90.04,37.85z"/>
		<path d="M96.48,35.58l-7.73,2.07c-1.06,0.28-1.7,1.39-1.41,2.45l0,0c0.28,1.06,1.39,1.7,2.45,1.41l7.73-2.07
			c1.06-0.28,1.7-1.39,1.41-2.45v0C98.65,35.93,97.55,35.3,96.48,35.58z"/>
	</g>
	<circle cx="47" cy="104" r="8"/>
	<circle cx="80" cy="104" r="8"/>
</g>
</svg>
