<?xml version="1.0" encoding="utf-8"?>
<!-- Generator: Adobe Illustrator 26.0.2, SVG Export Plug-In . SVG Version: 6.00 Build 0)  -->
<svg version="1.1" xmlns="http://www.w3.org/2000/svg" xmlns:xlink="http://www.w3.org/1999/xlink" x="0px" y="0px"
	 viewBox="0 0 128 128" style="enable-background:new 0 0 128 128;" xml:space="preserve">
<style type="text/css">
	.st0{fill:#020202;}
	.st1{fill:#606060;}
	.st2{fill:#FFFFFF;}
</style>
<g id="Base">
	<path d="M75.04,32H20.96C18.23,32,16,34.23,16,36.96v54.08c0,2.73,2.23,4.96,4.96,4.96h54.08c2.73,0,4.96-2.23,4.96-4.96V36.96
		C80,34.23,77.77,32,75.04,32z M57.95,64.79L46.44,87.33c-0.26,0.5-1.02,0.24-0.91-0.31l3.57-18.41c0.05-0.25-0.11-0.5-0.36-0.56
		l-16.62-4.19c-0.3-0.07-0.45-0.41-0.31-0.68l11.2-22.44c0.31-0.63,1.27-0.31,1.15,0.38l-3.1,17.72c-0.04,0.25,0.11,0.48,0.34,0.55
		l16.25,4.72C57.94,64.19,58.09,64.52,57.95,64.79z"/>
	<path d="M83.04,82h-8.09C72.23,82,70,79.77,70,77.04V52.96c0-2.73,2.23-4.96,4.96-4.96h8.09c2.73,0,4.96,2.23,4.96,4.96v24.09
		C88,79.77,85.77,82,83.04,82z"/>
	<path d="M78,64L78,64c0-2.2,1.8-4,4-4h26c2.2,0,4,1.8,4,4v0c0,2.2-1.8,4-4,4H82C79.8,68,78,66.2,78,64z"/>
</g>
<g id="Content">
</g>
</svg>
