<?xml version="1.0" encoding="utf-8"?>
<!-- Generator: Adobe Illustrator 26.0.2, SVG Export Plug-In . SVG Version: 6.00 Build 0)  -->
<svg version="1.1" xmlns="http://www.w3.org/2000/svg" xmlns:xlink="http://www.w3.org/1999/xlink" x="0px" y="0px"
	 viewBox="0 0 128 128" style="enable-background:new 0 0 128 128;" xml:space="preserve">
<style type="text/css">
	.st0{fill:#020202;}
	.st1{fill:none;stroke:#000000;stroke-miterlimit:10;}
	.st2{fill:#FFFFFF;}
</style>
<g id="Base">
</g>
<g id="Content">
	<path class="st1" d="M77.05,79.2c0,1.32-1.06,2.38-2.38,2.38c-1.31,0-2.38-1.06-2.38-2.38c0-0.9,0.5-1.67,1.22-2.07l-0.13-0.04
		c0,0,0.13-2.03,0-3.52c-0.13-1.51-0.68-2.56-0.68-2.56c-0.9,3.51-2.51,7.37-3.26,9.62C66.3,90.05,54.09,94.9,54.09,94.9
		s-0.43,0-1.17,0l0.94,5.99c1.05,0.24,1.85,1.17,1.85,2.31c0,1.32-1.07,2.38-2.38,2.38c-1.32,0-2.38-1.06-2.38-2.38
		c0-0.82,0.41-1.54,1.04-1.97l-0.98-6.34H42.8c-0.29,0-0.57-0.01-0.83-0.02l-1.04,5.19c0.85,0.36,1.44,1.21,1.44,2.18
		c0,1.32-1.06,2.38-2.38,2.38c-1.31,0-2.38-1.06-2.38-2.38c0-0.95,0.56-1.77,1.37-2.15l1.08-5.39c-4.08-0.61-6.98-2.86-12.48-8.37
		c-3.46-3.46-5.88-9.71-6.76-16.27c0,0-0.86,2-0.86,2.95c0,0.81-0.32,3.69-0.41,4.52c0.57,0.43,0.94,1.12,0.94,1.89
		c0,1.31-1.07,2.38-2.38,2.38c-1.32,0-2.38-1.07-2.38-2.38c0-0.96,0.57-1.79,1.4-2.16c0.04-0.98,0.22-3.3,0.94-6.15
		c0.95-3.8,2.39-5.48,2.39-5.48l0.02,0.22c-0.14-4.7,0.57-9.29,2.34-12.81C27.59,43.53,39,43.53,39,43.53s4.09,0,7.94,0
		c0.45-1.17,1.4-3.12,3.01-4.16c0.22-0.14,0.44-0.29,0.65-0.42c0.21-0.13,0.42-0.26,0.63-0.39c1.75-1.06,3.01-1.69,3.01-1.69
		s0.95-5.7,4.76-6.65c3.81-0.95,11.41,0,13.31,0.95c1.9,0.95,5.71,2.85,5.71,2.85s-4.76,3.8-6.66,4.75
		c-1.9,0.95-7.6,2.85-10.46,2.85c0,0-3.71,0-4.23-0.95c-0.52-0.95-1.47-1.9-1.47-1.9s-0.68,0-1.97,0.8
		c-0.21,0.13-0.44,0.29-0.7,0.48c-0.25,0.18-0.51,0.39-0.79,0.63c-1.25,1.07-1.99,2.13-2.38,2.85c4.27,0.05,10.6,0.95,10.6,0.95
		s6.65,1.9,10.46,10.47c1.7,3.81,2.97,7.4,2.99,11.15c0.52,0.81,1.55,2.67,2.05,5.27c0.48,2.51,0.41,4.68,0.34,5.72
		C76.53,77.49,77.05,78.28,77.05,79.2z"/>
	<path class="st1" d="M112.18,80.23c0,1.32-1.06,2.38-2.38,2.38c-1.31,0-2.38-1.06-2.38-2.38c0-0.9,0.5-1.67,1.22-2.07l-0.13-0.04
		c0,0,0.13-2.03,0-3.52c-0.13-1.51-0.68-2.56-0.68-2.56c-0.9,3.51-2.51,7.37-3.26,9.62c-3.14,9.42-15.35,14.27-15.35,14.27
		s-0.43,0-1.17,0l0.94,5.99c1.05,0.24,1.85,1.17,1.85,2.31c0,1.32-1.07,2.38-2.38,2.38c-1.32,0-2.38-1.06-2.38-2.38
		c0-0.82,0.41-1.54,1.04-1.97l-0.98-6.34h-8.19c-0.29,0-0.57-0.01-0.83-0.02l-1.04,5.19c0.85,0.36,1.44,1.21,1.44,2.18
		c0,1.32-1.06,2.38-2.38,2.38c-1.31,0-2.38-1.06-2.38-2.38c0-0.95,0.56-1.77,1.37-2.15l1.08-5.39c-4.08-0.61-6.98-2.86-12.48-8.37
		c-3.46-3.46-5.88-9.71-6.76-16.27c0,0-0.86,2-0.86,2.95c0,0.81-0.32,3.69-0.41,4.52c0.57,0.43,0.94,1.12,0.94,1.89
		c0,1.31-1.07,2.38-2.38,2.38c-1.32,0-2.38-1.07-2.38-2.38c0-0.96,0.57-1.79,1.4-2.16c0.04-0.98,0.22-3.3,0.94-6.15
		c0.95-3.8,2.39-5.48,2.39-5.48l0.02,0.22c-0.14-4.7,0.57-9.29,2.34-12.81c4.76-9.52,16.17-9.52,16.17-9.52s4.09,0,7.94,0
		c0.45-1.17,1.4-3.12,3.01-4.16c0.22-0.14,0.44-0.29,0.65-0.42c0.21-0.13,0.42-0.26,0.63-0.39c1.75-1.06,3.01-1.69,3.01-1.69
		s0.95-5.7,4.76-6.65c3.81-0.95,11.41,0,13.31,0.95c1.9,0.95,5.71,2.85,5.71,2.85s-4.76,3.8-6.66,4.75
		c-1.9,0.95-7.6,2.85-10.46,2.85c0,0-3.71,0-4.23-0.95c-0.52-0.95-1.47-1.9-1.47-1.9s-0.68,0-1.97,0.8
		c-0.21,0.13-0.44,0.29-0.7,0.48c-0.25,0.18-0.51,0.39-0.79,0.63c-1.25,1.07-1.99,2.13-2.38,2.85c4.27,0.05,10.6,0.95,10.6,0.95
		s6.65,1.9,10.46,10.47c1.7,3.81,2.97,7.4,2.99,11.15c0.52,0.81,1.55,2.67,2.05,5.27c0.48,2.51,0.41,4.68,0.34,5.72
		C111.66,78.52,112.18,79.31,112.18,80.23z"/>
	<path d="M101.32,78.28c0,1.66-1.34,3-3,3c-1.65,0-3-1.34-3-3c0-1.13,0.63-2.1,1.54-2.61l-0.17-0.05c0,0,0.17-2.56,0-4.44
		c-0.17-1.9-0.86-3.23-0.86-3.23c-1.14,4.43-3.16,9.3-4.11,12.13c-3.96,11.88-19.36,18-19.36,18s-0.54,0-1.48,0l1.18,7.56
		c1.33,0.3,2.33,1.48,2.33,2.91c0,1.66-1.35,3-3,3c-1.66,0-3-1.34-3-3c0-1.03,0.52-1.94,1.31-2.48l-1.24-7.99H58.13
		c-0.36,0-0.72-0.01-1.05-0.03l-1.31,6.55c1.07,0.45,1.82,1.52,1.82,2.75c0,1.66-1.34,3-3,3c-1.65,0-3-1.34-3-3
		c0-1.2,0.71-2.23,1.73-2.71l1.36-6.8c-5.14-0.77-8.8-3.61-15.74-10.56c-4.36-4.36-7.42-12.25-8.52-20.52c0,0-1.08,2.52-1.08,3.72
		c0,1.02-0.4,4.65-0.52,5.7c0.72,0.54,1.18,1.41,1.18,2.38c0,1.65-1.35,3-3,3c-1.66,0-3-1.35-3-3c0-1.21,0.72-2.26,1.76-2.73
		c0.05-1.24,0.28-4.16,1.18-7.75c1.2-4.79,3.02-6.91,3.02-6.91l0.03,0.28c-0.18-5.93,0.72-11.71,2.95-16.16c6-12,20.39-12,20.39-12
		s5.16,0,10.01,0c0.57-1.47,1.77-3.94,3.79-5.25c0.28-0.18,0.55-0.36,0.82-0.53c0.27-0.17,0.53-0.33,0.79-0.49
		c2.21-1.34,3.79-2.13,3.79-2.13s1.2-7.19,6-8.39c4.8-1.2,14.39,0,16.79,1.2c2.4,1.2,7.2,3.6,7.2,3.6s-6,4.79-8.4,5.99
		c-2.4,1.2-9.59,3.6-13.19,3.6c0,0-4.68,0-5.34-1.2c-0.66-1.2-1.86-2.4-1.86-2.4s-0.86,0-2.49,1.01c-0.27,0.17-0.56,0.37-0.88,0.6
		c-0.31,0.23-0.64,0.49-1,0.79c-1.58,1.35-2.51,2.68-3,3.6c5.39,0.06,13.37,1.2,13.37,1.2s8.39,2.4,13.19,13.2
		c2.14,4.8,3.75,9.33,3.77,14.06c0.66,1.02,1.96,3.37,2.58,6.65c0.6,3.16,0.52,5.9,0.43,7.22
		C100.66,76.12,101.32,77.12,101.32,78.28z"/>
</g>
</svg>
