<?xml version="1.0" encoding="utf-8"?>
<!-- Generator: Adobe Illustrator 26.0.2, SVG Export Plug-In . SVG Version: 6.00 Build 0)  -->
<svg version="1.1" xmlns="http://www.w3.org/2000/svg" xmlns:xlink="http://www.w3.org/1999/xlink" x="0px" y="0px"
	 viewBox="0 0 128 128" style="enable-background:new 0 0 128 128;" xml:space="preserve">
<style type="text/css">
	.st0{fill:#020202;}
	.st1{fill:#606060;}
	.st2{fill:#FFFFFF;}
</style>
<g id="Base">
	<polygon points="94.93,34.04 92.02,44 54.62,44 60.48,23.97 81.57,15.78 	"/>
	<polygon points="51.44,30.35 51.49,30.51 45.17,44 44.87,44 31.89,37.05 31.83,36.89 34.23,31.77 46.5,27.7 	"/>
	<polygon points="45.17,44 45.11,44.13 44.87,44 	"/>
	<g>
		<path d="M17.53,58l5.64,33.83c0.4,2.41,2.48,4.17,4.91,4.17h7.78c0-6.63,5.37-12,12-12s12,5.37,12,12h8c0-6.63,5.37-12,12-12
			s12,5.37,12,12h7.78c2.43,0,4.51-1.76,4.91-4.17L110.19,58H17.53z M69.5,75.34l1.29,7.57L64,79.33l-6.79,3.58l1.29-7.57
			l-5.49-5.35l7.59-1.11L64,62l3.4,6.88l7.59,1.11L69.5,75.34z"/>
		<path d="M110.89,53.81L110.86,54h-94l-0.03-0.19C16.32,50.77,18.67,48,21.75,48h84.22C109.05,48,111.4,50.77,110.89,53.81z"/>
		<circle cx="47.86" cy="96" r="8"/>
		<circle cx="79.86" cy="96" r="8"/>
	</g>
</g>
<g id="Content">
</g>
</svg>
