<?xml version="1.0" encoding="utf-8"?>
<!-- Generator: Adobe Illustrator 26.0.2, SVG Export Plug-In . SVG Version: 6.00 Build 0)  -->
<svg version="1.1" xmlns="http://www.w3.org/2000/svg" xmlns:xlink="http://www.w3.org/1999/xlink" x="0px" y="0px"
	 viewBox="0 0 128 128" style="enable-background:new 0 0 128 128;" xml:space="preserve">
<style type="text/css">
	.st0{fill:#020202;}
	.st1{fill:#606060;}
	.st2{fill:#FFFFFF;}
</style>
<g id="Base">
	<ellipse cx="64" cy="28" rx="24" ry="8"/>
	<path d="M64,40c-13.25,0-24-3.58-24-8v72c0,4.42,10.75,8,24,8s24-3.58,24-8V32C88,36.42,77.25,40,64,40z M64,86.5
		c-7.18,0-13-4.7-13-10.5c0-3.44,2.05-6.49,5.21-8.4l-4.74-2.43l7.3-1.03l3.07-4.13l3.49,3.78l7.38,0.24l-3.56,2.33
		C73.77,67.97,77,71.68,77,76C77,81.8,71.18,86.5,64,86.5z"/>
</g>
<g id="Content">
</g>
</svg>
