<?xml version="1.0" encoding="utf-8"?>
<!-- Generator: Adobe Illustrator 26.0.2, SVG Export Plug-In . SVG Version: 6.00 Build 0)  -->
<svg version="1.1" xmlns="http://www.w3.org/2000/svg" xmlns:xlink="http://www.w3.org/1999/xlink" x="0px" y="0px"
	 viewBox="0 0 128 128" style="enable-background:new 0 0 128 128;" xml:space="preserve">
<style type="text/css">
	.st0{fill:#020202;}
	.st1{fill:#606060;}
	.st2{fill:#FFFFFF;}
</style>
<g id="Base">
	<path d="M99.13,33.04c-0.2,0.18-0.41,0.33-0.64,0.45c3.2,2.24,5.11,5.94,5.11,9.83c0,1.61-0.33,3.25-1.03,4.83
		c-4.14,9.38-11.23,22.15-22.35,32.6c-10.3,9.67-22.82,16.86-31.89,21.33c-5.36,2.64-11.65,0.92-14.99-3.65
		c-0.04,0.08-0.08,0.17-0.13,0.25l-3.5,6.02c-1.13,1.94-3.91,2.01-5.14,0.13l-3.41-5.21c-1.23-1.88-0.05-4.4,2.18-4.65l6.92-0.81
		c0.38-0.05,0.75-0.02,1.09,0.07c-1.36-5.43,1.23-11.16,6.35-13.68c2.93-1.44,6.29-3.22,9.8-5.32l11.32,9.05l-5.42-12.8
		c2.85-1.94,5.68-4.08,8.34-6.4l11.33,9.05l-7-13.16c2.14-2.25,4.07-4.63,5.79-7.03l10.08,5.45l-6.67-10.64
		c2.22-3.66,3.97-7.2,5.32-10.26c2.33-5.27,8.03-8.15,13.61-6.89c-0.05-0.17-0.08-0.34-0.1-0.52l-0.64-6.94
		c-0.21-2.23,2.01-3.9,4.1-3.09l5.8,2.26c2.1,0.82,2.6,3.55,0.94,5.06L99.13,33.04z"/>
</g>
<g id="Content">
</g>
</svg>
