<?xml version="1.0" encoding="utf-8"?>
<!-- Generator: Adobe Illustrator 26.0.2, SVG Export Plug-In . SVG Version: 6.00 Build 0)  -->
<svg version="1.1" xmlns="http://www.w3.org/2000/svg" xmlns:xlink="http://www.w3.org/1999/xlink" x="0px" y="0px"
	 viewBox="0 0 128 128" style="enable-background:new 0 0 128 128;" xml:space="preserve">
<style type="text/css">
	.st0{fill:#020202;}
	.st1{fill:#606060;}
	.st2{fill:#FFFFFF;}
</style>
<g id="Base">
	<path d="M32.29,43.34l7.41,65.99c0.17,1.52,1.46,2.67,2.99,2.67H85.2c1.53,0,2.81-1.15,2.99-2.67l7.44-65.99
		c0.2-1.78-1.19-3.34-2.99-3.34H35.27C33.48,40,32.09,41.56,32.29,43.34z M39.22,69.33L36.8,47.33c-0.2-1.78,1.2-3.33,2.99-3.33
		h48.38c1.79,0,3.18,1.56,2.99,3.34L88.7,69.33C88.53,70.85,87.24,72,85.71,72h-43.5C40.68,72,39.39,70.85,39.22,69.33z"/>
	<path d="M61.48,85.92L46.2,32.99c-0.03-0.12-0.08-0.23-0.14-0.34c-0.56-1.11-0.93-2.95,0.36-4.6c1.13-1.44,2.36-1.88,3.06-2
		L77.4,14.89c1.03-0.41,2.19,0.09,2.6,1.11l0,0c0.41,1.03-0.09,2.19-1.11,2.6L50.38,30h-0.23c-0.09,0.04-0.31,0.16-0.58,0.51
		c-0.03,0.09,0.02,0.27,0.09,0.39l0.19,0.27l0.07,0.28l15.4,53.37c0.31,1.06-0.31,2.17-1.37,2.48h0
		C62.89,87.6,61.78,86.98,61.48,85.92z"/>
</g>
<g id="Content">
</g>
</svg>
