<?xml version="1.0" encoding="utf-8"?>
<!-- Generator: Adobe Illustrator 26.0.2, SVG Export Plug-In . SVG Version: 6.00 Build 0)  -->
<svg version="1.1" xmlns="http://www.w3.org/2000/svg" xmlns:xlink="http://www.w3.org/1999/xlink" x="0px" y="0px"
	 viewBox="0 0 128 128" style="enable-background:new 0 0 128 128;" xml:space="preserve">
<style type="text/css">
	.st0{fill:#020202;}
	.st1{fill:#606060;}
	.st2{fill:#FFFFFF;}
</style>
<g id="Base">
</g>
<g id="Content">
	<path d="M56.85,112h13.63V74.94c0,0,12.11,0,15.2-5.15c3.09-5.15,2.06-12.35,2.06-12.35S97,53.32,97,47.14s-2.06-7.21-4.12-8.24
		c-2.06-1.03-7.21-1.03-7.21-1.03s3.09-13.38-6.18-18.53s-13.38-3.09-16.47-2.06s-9.27,7.21-9.27,7.21s-14.41-2.06-20.59,8.24
		s1.03,22.65,1.03,22.65s-2.48,8.42,0,13.38c1.71,3.41,4.85,8.85,9.16,10.43c6.1,2.24,13.49-0.14,13.49-0.14V112z"/>
</g>
</svg>
