<?xml version="1.0" encoding="utf-8"?>
<!-- Generator: Adobe Illustrator 26.0.2, SVG Export Plug-In . SVG Version: 6.00 Build 0)  -->
<svg version="1.1" xmlns="http://www.w3.org/2000/svg" xmlns:xlink="http://www.w3.org/1999/xlink" x="0px" y="0px"
	 viewBox="0 0 128 128" style="enable-background:new 0 0 128 128;" xml:space="preserve">
<style type="text/css">
	.st0{fill:#020202;}
	.st1{fill:#606060;}
	.st2{fill:#FFFFFF;}
</style>
<g id="Base">
	<path d="M78.15,24.24c-0.1,0.08-0.19,0.17-0.28,0.26l0.27-0.27L78.15,24.24z"/>
	<path d="M100.77,46.86l-0.27,0.27c0.09-0.09,0.18-0.18,0.26-0.28L100.77,46.86z"/>
	<path d="M52.5,80.25c-0.57-1.25-1.31-2.42-2.19-3.47c-1.89-2.28-4.41-4.03-7.3-4.97c-1.52-0.51-3.14-0.79-4.83-0.81H38
		c-4.14,0-7.92,1.57-10.76,4.15C24.02,78.08,22,82.3,22,87c0,8.84,7.16,16,16,16c4.7,0,8.92-2.02,11.85-5.24
		C52.43,94.92,54,91.14,54,87C54,84.59,53.47,82.3,52.5,80.25z M46.12,94.03c-2.03,3.05-5.49,5.05-9.42,5.05
		c-6.24,0-11.3-5.05-11.3-11.3c0-3.93,2.01-7.39,5.05-9.42c0.29-0.19,0.59-0.37,0.9-0.53c1.59-0.87,3.42-1.35,5.35-1.35
		c0.52,0,1.03,0.03,1.53,0.11c3.15,0.42,5.89,2.14,7.66,4.61c0.82,1.15,1.44,2.46,1.79,3.87c0.21,0.87,0.32,1.77,0.32,2.71
		C48,90.09,47.31,92.24,46.12,94.03z"/>
	<path d="M37.05,81.18c-3.84,0-6.95,3.11-6.95,6.95c0,3.84,3.11,6.95,6.95,6.95c3.84,0,6.95-3.11,6.95-6.95
		C44,84.29,40.89,81.18,37.05,81.18z M36.68,91c-1.79,0-3.23-1.45-3.23-3.23c0-1.79,1.44-3.24,3.23-3.24s3.24,1.45,3.24,3.24
		C39.92,89.55,38.47,91,36.68,91z"/>
	<path d="M105,36c0,4.19-1.61,8-4.24,10.85c-0.08,0.1-0.17,0.19-0.26,0.28L80.88,66.75l2.77,13.68c0.22,1.08-0.48,2.14-1.56,2.36
		c-1.08,0.22-2.14-0.48-2.36-1.56l-2.25-11.08L49.86,97.77l-0.01-0.01C52.43,94.92,54,91.14,54,87c0-2.41-0.53-4.7-1.5-6.75
		l47.27-47.27c0.39-0.39,0.59-0.9,0.59-1.42c0-0.51-0.2-1.02-0.59-1.41c-0.78-0.78-2.05-0.78-2.83,0l-6.44,6.44L78.78,48.31
		L50.31,76.78c-1.89-2.28-4.41-4.03-7.3-4.97l30.8-30.8l10.56-10.55l2.91-2.92c0.4-0.39,0.59-0.9,0.59-1.41s-0.19-1.02-0.59-1.41
		c-0.78-0.79-2.04-0.79-2.82,0l-2.91,2.92L73,36.18L38.18,71H38c-4.14,0-7.92,1.57-10.76,4.15l-0.01-0.01L77.87,24.5
		c0.09-0.09,0.18-0.18,0.28-0.26C81,21.61,84.81,20,89,20C97.84,20,105,27.16,105,36z"/>
</g>
<g id="Content">
</g>
</svg>
