<?xml version="1.0" encoding="utf-8"?>
<!-- Generator: Adobe Illustrator 26.0.2, SVG Export Plug-In . SVG Version: 6.00 Build 0)  -->
<svg version="1.1" xmlns="http://www.w3.org/2000/svg" xmlns:xlink="http://www.w3.org/1999/xlink" x="0px" y="0px"
	 viewBox="0 0 128 128" style="enable-background:new 0 0 128 128;" xml:space="preserve">
<style type="text/css">
	.st0{fill:#020202;}
	.st1{fill:#606060;}
	.st2{fill:#FFFFFF;}
</style>
<g id="Base">
	<g>
		<path class="st0" d="M112,64c0,18.87-10.89,35.2-26.73,43.04c11.84-13.36,21.29-32.18,26.71-44.4C111.99,63.09,112,63.55,112,64z"
			/>
		<path class="st0" d="M55.02,87.36c-3.88-2.29-23.21-14.01-38.72-28.74c0.79-7.09,3.12-13.7,6.65-19.51
			C38.58,57.09,62.81,72.16,69.39,76.1c-0.05,0.05-0.09,0.1-0.14,0.15C65.13,80.66,60.2,84.32,55.02,87.36z"/>
		<path class="st0" d="M47.19,108.97h-0.01c-5.05-1.89-9.7-4.6-13.77-7.98c6.32-1.92,13.67-4.67,20.8-8.53
			c6.47-3.51,12.77-7.93,17.96-13.48c12.6-13.46,22.65-33.46,28.28-46.2c2,2.32,3.78,4.84,5.3,7.52
			c-4.74,11.36-15.84,35.63-29.93,50.69C67.93,99.43,57.08,105.16,47.19,108.97z"/>
		<path class="st0" d="M25.26,35.66c3.92-5.36,8.93-9.87,14.7-13.22c15.94,16.88,38.31,30.61,43.85,33.9
			c-3.53,5.87-7.47,11.65-11.71,16.69C66.84,69.91,40.87,54,25.26,35.66z"/>
		<path class="st0" d="M94.07,37.02C90.43,34.85,77.19,26.76,64.2,16c12.93,0.05,24.66,5.21,33.25,13.59
			C96.48,31.82,95.35,34.33,94.07,37.02z"/>
		<path class="st0" d="M111.07,54.52c-4.53,10.99-15.83,36.06-30.25,51.47c-1.49,1.59-3.07,3.08-4.74,4.48
			c-3.86,1-7.91,1.53-12.08,1.53c-3.66,0-7.22-0.41-10.64-1.19c8.94-3.92,18.21-9.43,25.38-17.09c13.45-14.38,24-36.2,29.37-48.68
			C109.41,48.05,110.41,51.23,111.07,54.52z"/>
		<path class="st0" d="M43.67,20.51c4.55-2.14,9.49-3.57,14.68-4.17c14.6,12.69,30.36,22.18,33.97,24.3
			c-1.91,3.89-4.09,8.05-6.49,12.24C80.54,49.71,59.07,36.46,43.67,20.51z"/>
		<path class="st0" d="M50.97,89.6c-7.31,3.78-14.83,6.41-21.06,8.19C21.31,89.12,16,77.18,16,64v-0.17
			C29.49,76.13,44.8,85.87,50.97,89.6z"/>
	</g>
</g>
<g id="Content">
</g>
</svg>
